<svg xmlns="http://www.w3.org/2000/svg" xml:space="preserve" width="2000" height="1500" data-id="lg_IghJlkvsRneYcytGnU" data-version="1" viewBox="0 0 2000 1500"><path fill="#fff" stroke="transparent" d="M0 0h2000v1500H0z"/><g data-padding="20"><g transform="translate(-1698.566 -1279.869)scale(2.62038)"><path fill="#fff74f" d="M926.38 636.9a137.747 137.747 0 1 0 0 275.495 137.747 137.747 0 1 0 0-275.494"/><rect width="378.054" height="261.482" x="478.913" y="260.407" fill="none" rx="0" ry="0" transform="translate(448.71 383.9)"/><path d="M955.44 758.598h-20.02q.91 0 1.82-1.82t.91-5.98v-62.4q0-4.16-.91-5.92-.91-1.75-1.82-1.88h20.02q-.91 0-1.82 1.82t-.91 6.11v21.19q0 2.86.72 3.38.71.52 4.61.52h38.87q3.9 0 4.55-.46.65-.45.65-3.44v-21.32q0-4.16-.91-5.92-.91-1.75-1.82-1.88h20.02q-.91 0-1.82 1.82t-.91 6.11v62.27q0 4.16.91 5.98t1.82 1.82h-20.02q.91 0 1.82-1.82t.91-5.98v-22.88q0-2.99-.71-3.45-.72-.45-4.49-.45h-38.87q-3.9 0-4.61.52-.72.52-.72 3.38v22.88q0 4.16.91 5.98t1.82 1.82m104.13 1.3q-13 0-20.34-4.16-7.35-4.16-10.27-11.31-2.93-7.15-2.93-16.12 0-9.1 3.06-16.25 3.05-7.15 10.33-11.38 7.28-4.22 20.15-4.22t20.15 4.22q7.28 4.23 10.34 11.38 3.05 7.15 3.05 16.25 0 8.97-2.92 16.12-2.93 7.15-10.21 11.31t-20.41 4.16m0-9.23q8.06 0 12.48-2.6t6.11-7.61q1.69-5 1.69-12.15t-1.75-12.22q-1.76-5.07-6.11-7.8-4.36-2.73-12.42-2.73-7.93 0-12.35 2.79-4.42 2.8-6.17 7.93-1.76 5.14-1.76 12.16 0 6.89 1.69 11.89 1.69 5.01 6.11 7.67 4.42 2.67 12.48 2.67m65.91 9.23q-7.54 0-13.19-2.67-5.66-2.66-8.72-9.23-3.05-6.56-3.05-18.26v-24.18q0-4.16-.84-5.98-.85-1.82-1.76-1.82h18.59q-.91 0-1.88 1.82-.98 1.82-.98 5.98v26q0 11.05 3.9 15.08t10.27 4.03 11.05-3.12 7.34-8.58q2.67-5.46 2.67-12.35v-21.06q0-4.16-.84-5.92-.85-1.75-1.76-1.88h15.86v53.04q0 4.16.85 5.98.84 1.82 1.75 1.82h-15.86v-7.8l.26-2.6-.26-.26q-.78 1.56-2.6 3.57-1.82 2.02-4.74 3.97-2.93 1.95-6.96 3.18-4.03 1.24-9.1 1.24m78.39 0q-12.22 0-20.48-1.3-8.25-1.3-11.24-2.6v-2.6l-2.73-11.18q3.38 2.73 11.9 5.65 8.51 2.93 20.73 2.93 8.06 0 12.09-1.11 4.03-1.1 5.33-2.99 1.3-1.88 1.3-4.22 0-2.73-1.89-4.36-1.88-1.62-7.02-2.73-5.13-1.1-15.14-2.27-10.92-1.3-16.84-3.77-5.91-2.47-8.12-6.31-2.21-3.83-2.21-9.16 0-4.16 2.21-8.19t8.25-6.63q6.05-2.6 17.23-2.6 12.09 0 20.34 1.3 8.26 1.3 11.25 2.6v2.6l2.6 9.88q-3.25-2.34-11.83-4.81t-20.67-2.47q-9.62 0-12.87 2.14-3.25 2.15-3.25 5.53 0 1.95.78 3.44.78 1.5 3.18 2.67 2.41 1.17 7.29 2.08 4.87.91 13.06 1.82 11.05 1.17 16.77 3.64t7.86 6.17q2.15 3.71 2.15 8.65 0 5.33-2.93 9.42-2.92 4.1-9.55 6.44t-17.55 2.34m67.34 0q-10.27 0-16.9-2.41-6.63-2.4-10.4-6.69t-5.26-10.01q-1.5-5.72-1.5-12.48 0-14.69 8.39-23.27 8.38-8.58 24.89-8.58 9.62 0 15.54 2.6 5.91 2.6 8.97 6.89 3.05 4.29 4.16 9.29 1.1 5.01 1.1 9.82v6.11q0-.39-3.57-.85-3.58-.45-12.03-.45h-34.19q0 9.62 5.72 15.21t17.03 5.59q9.75 0 16.06-2.41 6.3-2.4 8.38-4.74v2.6l1.3 8.58q-2.86 1.69-10.07 3.44-7.22 1.76-17.62 1.76m-15.6-38.61h31.59q0-3.38-1.43-7.02t-5.07-6.18q-3.64-2.53-10.27-2.53-5.59 0-9.75 1.88-4.16 1.89-6.43 4.88-2.28 2.99-2.28 6.37 0 1.3.78 1.95t2.86.65m-300.17 151.89h-19.89q.91 0 1.76-1.82.84-1.82.84-5.98v-62.4q0-4.16-.91-5.91-.91-1.76-1.82-1.89h42.64q12.09 0 18.85 2.93 6.76 2.92 9.55 8.32 2.8 5.39 2.8 13.06 0 4.81-2.08 9.49t-6.69 8.06q-4.62 3.38-12.42 4.42v.39q8.71 2.34 15.01 8.58 6.31 6.24 10.86 13.65 2.99 4.81 5.46 6.89t3.77 2.21h-27.3q1.56-.13 2.54-1.75.97-1.63-.72-5.4-2.73-6.24-7.74-11.11-5-4.88-12.54-7.67-7.54-2.8-17.94-2.8h-1.43q-4.03 0-4.68.65t-.65 3.25v17.03q0 4.16.91 5.98t1.82 1.82m2.6-39.13h15.99q10.4 0 15.6-3.7 5.2-3.71 5.2-10.86 0-4.81-2.01-7.86-2.02-3.06-6.31-4.49t-11.18-1.43h-17.29q-4.03 0-4.68.39t-.65 2.99v21.45q0 2.6.65 3.06.65.45 4.68.45m98.68 40.43q-10.27 0-16.9-2.4-6.63-2.41-10.4-6.7t-5.26-10.01q-1.5-5.72-1.5-12.48 0-14.69 8.39-23.27 8.38-8.58 24.89-8.58 9.62 0 15.54 2.6 5.91 2.6 8.97 6.89 3.05 4.29 4.16 9.3 1.1 5 1.1 9.81v6.11q0-.39-3.57-.84-3.58-.46-12.03-.46h-34.19q0 9.62 5.72 15.21t17.03 5.59q9.75 0 16.06-2.4 6.3-2.41 8.38-4.75v2.6l1.3 8.58q-2.86 1.69-10.07 3.45-7.22 1.75-17.62 1.75m-15.6-38.61h31.59q0-3.38-1.43-7.02t-5.07-6.17q-3.64-2.54-10.27-2.54-5.59 0-9.75 1.89-4.16 1.88-6.43 4.87-2.28 2.99-2.28 6.37 0 1.3.78 1.95t2.86.65m68.5 37.31h-18.46q.91 0 1.76-1.82.84-1.82.84-5.98v-43.94q0-4.16-.84-5.91-.85-1.76-1.76-1.89 5.72 0 9.95-.84 4.22-.85 5.91-1.76v7.93l-.26 1.69.26.26q1.95-2.47 5.01-4.68 3.05-2.21 7.6-3.7 4.55-1.5 10.66-1.5 12.09 0 18.53 6.89 6.43 6.89 6.43 21.58v25.87q0 4.16.85 5.98.84 1.82 1.75 1.82h-18.46q.91 0 1.76-1.82.84-1.82.84-5.98v-25.48q0-7.67-1.95-11.96t-5.39-6.04q-3.45-1.76-8-1.76-4.81 0-9.36 2.08t-7.41 6.63-2.86 12.22v24.31q0 4.16.85 5.98.84 1.82 1.75 1.82m79.05 1.29q-8.97 0-13-3.83-4.03-3.84-4.03-12.55v-36.66h-11.7v-9.1q5.98 0 9.36-1.49 3.38-1.5 4.81-5.27t1.43-10.53h9.36v17.29h24.83q-.91 1.3-1.76 3.84-.84 2.53-.84 5.26h-22.23v34.71q0 5.98 2.21 7.54t5.59 1.56q3.25 0 6.04-1.36 2.8-1.37 4.95-3.32 2.14-1.95 3.31-3.77v4.03l1.3 7.41q-1.3 1.3-4.03 2.8-2.73 1.49-6.63 2.47-3.9.97-8.97.97m47.45.01q-14.17 0-19.89-5.13-5.72-5.14-5.72-13.85 0-6.11 3.06-10.46 3.05-4.36 9.23-6.7 6.17-2.34 15.66-2.34 6.76 0 11.76.98 5.01.97 8.2 2.27 3.18 1.3 4.48 2.21 0-7.67-1.88-12.35-1.89-4.68-6.05-6.82-4.16-2.15-11.31-2.15-7.67 0-13.71 1.76-6.05 1.75-9.69 3.77-3.64 2.01-4.55 2.92v-2.6l-1.3-9.75q1.17-.52 5.07-1.75 3.9-1.24 10.27-2.34 6.37-1.11 14.95-1.11 10.92 0 17.88 3.06 6.95 3.05 10.26 9.36 3.32 6.3 3.32 15.92v26q0 3.64.85 5.27.84 1.62 1.75 2.53h-15.86v-3.9l.26-2.47-.26-.13q-2.08 1.95-4.94 3.38t-6.24 2.41q-3.38.97-7.34 1.49-3.97.52-8.26.52m4.29-9.23q7.02 0 12.09-1.43t7.73-3.83q2.67-2.41 2.67-5.53 0-3.9-5.13-6.63-5.14-2.73-15.93-2.73-10.01 0-14.11 2.6-4.09 2.6-4.09 7.8 0 5.07 3.96 7.41 3.97 2.34 12.81 2.34m62.78 7.93h-18.46q.91 0 1.75-1.82.85-1.82.85-5.98v-74.1q0-4.16-.85-5.91-.84-1.76-1.75-1.89 5.72 0 9.95-.84 4.22-.85 5.91-1.76v84.5q0 4.16.85 5.98.84 1.82 1.75 1.82"/></g><path fill="transparent" stroke="transparent" stroke-width="2.726" d="M340.749 375.2h1409.25v749.6H340.75z"/></g></svg>